# xmcd
#
# Track frame offsets: 
#        150
#        17362
#        31877
#        47545
#        60222
#        71404
#        92108
#        105658
#        115985
#        133497
#        144016
#        155977
#        166346
#        180500
#        218001
#        235555
#        240840
#        261710
#        282089
#        294603
#        315277
#        326241
#
# Disc length: 4697 seconds
#
# Revision: 0
# Processed by: cddbd v1.5.2PL0 Copyright (c) Steve Scherf et al.
# Submitted via: ExactAudioCopy v0.95b3
#
DISCID=2e125716
DTITLE=The Beatles  - Magical Mystery Year Deluxe Edition, Vol 2 (Purp
DTITLE=le Chick)
DYEAR=1900
DGENRE=
TTITLE0=All You Need Is Love
TTITLE1=Baby You're A Rich Man
TTITLE2=Hello Goodbye
TTITLE3=Magical Mystery Tour
TTITLE4=Your Mother Should Know
TTITLE5=I Am The Walrus
TTITLE6=The Fool On The Hill
TTITLE7=Flying
TTITLE8=Blue Jay Way
TTITLE9=Lady Madonna
TTITLE10=The Inner Light
TTITLE11=All Together Now
TTITLE12=Hey Bulldog
TTITLE13=It's All Too Much
TTITLE14=Across The Universe
TTITLE15=Christmas Time (Is Here Again) (Sessions Mix)
TTITLE16=I Am The Walrus (US Single)
TTITLE17=All You Need Is Love (RM11)
TTITLE18=Magical Mystery Tour (Mono Film Mix)
TTITLE19=I Am The Walrus (Mono Film Mix)
TTITLE20=Your Mother Should Know (Mono Film Mix)
TTITLE21=Anthology Medley
EXTD=
EXTT0=
EXTT1=
EXTT2=
EXTT3=
EXTT4=
EXTT5=
EXTT6=
EXTT7=
EXTT8=
EXTT9=
EXTT10=
EXTT11=
EXTT12=
EXTT13=
EXTT14=
EXTT15=
EXTT16=
EXTT17=
EXTT18=
EXTT19=
EXTT20=
EXTT21=
PLAYORDER=
